<svg width="30" height="27" viewBox="0 0 30 27" fill="none" xmlns="http://www.w3.org/2000/svg">
<path d="M15.2768 1.07534L26.5777 5.59566C27.0171 5.77145 27.3687 6.29881 27.3687 6.7634V10.9322C27.3687 11.6228 26.8037 12.1878 26.1131 12.1878H3.51133C2.82072 12.1878 2.25568 11.6228 2.25568 10.9322V6.7634C2.25568 6.29881 2.60727 5.77145 3.04674 5.59566L14.3476 1.07534C14.5987 0.974887 15.0257 0.974887 15.2768 1.07534Z" stroke="#F85C70" stroke-width="2" stroke-miterlimit="10" stroke-linecap="round" stroke-linejoin="round"/>
<path d="M27.3687 26H2.25568V22.2331C2.25568 21.5425 2.82072 20.9774 3.51133 20.9774H26.1131C26.8037 20.9774 27.3687 21.5425 27.3687 22.2331V26Z" stroke="#F85C70" stroke-width="2" stroke-miterlimit="10" stroke-linecap="round" stroke-linejoin="round"/>
<path d="M4.76697 20.9774V12.1878" stroke="#F85C70" stroke-width="2" stroke-miterlimit="10" stroke-linecap="round" stroke-linejoin="round"/>
<path d="M9.78955 20.9774V12.1878" stroke="#F85C70" stroke-width="2" stroke-miterlimit="10" stroke-linecap="round" stroke-linejoin="round"/>
<path d="M14.8122 20.9774V12.1878" stroke="#F85C70" stroke-width="2" stroke-miterlimit="10" stroke-linecap="round" stroke-linejoin="round"/>
<path d="M19.8348 20.9774V12.1878" stroke="#F85C70" stroke-width="2" stroke-miterlimit="10" stroke-linecap="round" stroke-linejoin="round"/>
<path d="M24.8574 20.9774V12.1878" stroke="#F85C70" stroke-width="2" stroke-miterlimit="10" stroke-linecap="round" stroke-linejoin="round"/>
<path d="M1 26H28.6243" stroke="#F85C70" stroke-width="2" stroke-miterlimit="10" stroke-linecap="round" stroke-linejoin="round"/>
<path d="M14.8122 9.04869C15.8524 9.04869 16.6957 8.20543 16.6957 7.16522C16.6957 6.125 15.8524 5.28174 14.8122 5.28174C13.772 5.28174 12.9287 6.125 12.9287 7.16522C12.9287 8.20543 13.772 9.04869 14.8122 9.04869Z" stroke="#F85C70" stroke-width="2" stroke-miterlimit="10" stroke-linecap="round" stroke-linejoin="round"/>
</svg>
