<svg width="29" height="27" viewBox="0 0 29 27" fill="none" xmlns="http://www.w3.org/2000/svg">
<path d="M18.617 1H9.46208C6.21481 1 5.49754 2.61711 5.08023 4.59938L3.60657 11.6547H24.4725L22.9989 4.59938C22.5815 2.61711 21.8643 1 18.617 1Z" stroke="#F85C70" stroke-width="2" stroke-linecap="round" stroke-linejoin="round"/>
<path d="M27.0678 23.157C27.2112 24.6828 25.9854 25.9999 24.4204 25.9999H21.9687C20.5602 25.9999 20.3646 25.4 20.1168 24.6567L19.856 23.8742C19.4908 22.8048 19.2561 22.0876 17.3782 22.0876H10.7011C8.82312 22.0876 8.54925 22.8961 8.22322 23.8742L7.9624 24.6567C7.71461 25.4 7.51899 25.9999 6.11054 25.9999H3.65879C2.09385 25.9999 0.867971 24.6828 1.01142 23.157L1.74173 15.2149C1.92431 13.2587 2.30251 11.6546 5.71931 11.6546H22.3599C25.7767 11.6546 26.1549 13.2587 26.3375 15.2149L27.0678 23.157Z" stroke="#F85C70" stroke-width="2" stroke-linecap="round" stroke-linejoin="round"/>
<path d="M3.60661 7.74225H2.30249" stroke="#F85C70" stroke-width="2" stroke-linecap="round" stroke-linejoin="round"/>
<path d="M25.7768 7.74225H24.4727" stroke="#F85C70" stroke-width="2" stroke-linecap="round" stroke-linejoin="round"/>
<path d="M14.0397 1.22168V3.82992" stroke="#F85C70" stroke-width="2" stroke-linecap="round" stroke-linejoin="round"/>
<path d="M12.0835 3.8299H15.9959" stroke="#F85C70" stroke-width="2" stroke-linecap="round" stroke-linejoin="round"/>
<path d="M6.21497 16.8712H10.1273" stroke="#F85C70" stroke-width="2" stroke-linecap="round" stroke-linejoin="round"/>
<path d="M17.952 16.8712H21.8644" stroke="#F85C70" stroke-width="2" stroke-linecap="round" stroke-linejoin="round"/>
</svg>
