<svg width="28" height="27" viewBox="0 0 28 27" fill="none" xmlns="http://www.w3.org/2000/svg">
<path d="M1 26H26.6805" stroke="#F85C70" stroke-width="2" stroke-miterlimit="10" stroke-linecap="round" stroke-linejoin="round"/>
<path d="M2.21973 26L2.28393 10.5531C2.28393 9.76985 2.6563 9.02519 3.27263 8.53726L12.2608 1.53929C13.1853 0.820236 14.4822 0.820236 15.4195 1.53929L24.4077 8.5244C25.0369 9.01233 25.3964 9.75701 25.3964 10.5531V26" stroke="#F85C70" stroke-width="2" stroke-miterlimit="10" stroke-linejoin="round"/>
<path d="M15.1243 19.5798H12.5563C11.4905 19.5798 10.6302 20.4401 10.6302 21.5059V26H17.0504V21.5059C17.0504 20.4401 16.1901 19.5798 15.1243 19.5798Z" stroke="#F85C70" stroke-width="2" stroke-miterlimit="10" stroke-linejoin="round"/>
<path d="M10.6302 15.4068H8.0621C7.35589 15.4068 6.77808 14.8289 6.77808 14.1227V12.1967C6.77808 11.4905 7.35589 10.9127 8.0621 10.9127H10.6302C11.3364 10.9127 11.9142 11.4905 11.9142 12.1967V14.1227C11.9142 14.8289 11.3364 15.4068 10.6302 15.4068Z" stroke="#F85C70" stroke-width="2" stroke-miterlimit="10" stroke-linejoin="round"/>
<path d="M19.6184 15.4068H17.0504C16.3442 15.4068 15.7664 14.8289 15.7664 14.1227V12.1967C15.7664 11.4905 16.3442 10.9127 17.0504 10.9127H19.6184C20.3247 10.9127 20.9025 11.4905 20.9025 12.1967V14.1227C20.9025 14.8289 20.3247 15.4068 19.6184 15.4068Z" stroke="#F85C70" stroke-width="2" stroke-miterlimit="10" stroke-linejoin="round"/>
<path d="M22.8284 6.73959L22.7899 2.88751H17.1401" stroke="#F85C70" stroke-width="2" stroke-miterlimit="10" stroke-linecap="round" stroke-linejoin="round"/>
</svg>
