<svg width="91" height="91" viewBox="0 0 91 91" fill="none" xmlns="http://www.w3.org/2000/svg">
<path d="M70.981 24.9273C70.7261 24.8848 70.4286 24.8848 70.1736 24.9273C64.3094 24.7148 59.6349 19.9129 59.6349 13.9637C59.6349 7.8869 64.5218 3 70.5986 3C76.6753 3 81.5622 7.9294 81.5622 13.9637C81.5197 19.9129 76.8453 24.7148 70.981 24.9273Z" stroke="#F85C70" stroke-width="6" stroke-linecap="round" stroke-linejoin="round"/>
<path d="M66.6041 55.8637C72.4258 56.8411 78.8426 55.8212 83.347 52.8041C89.3388 48.8096 89.3388 42.2654 83.347 38.2709C78.8001 35.2537 72.2983 34.2338 66.4766 35.2537" stroke="#F85C70" stroke-width="6" stroke-linecap="round" stroke-linejoin="round"/>
<path d="M19.8597 24.9273C20.1147 24.8848 20.4121 24.8848 20.6671 24.9273C26.5314 24.7148 31.2058 19.9129 31.2058 13.9637C31.2058 7.8869 26.3189 3 20.2422 3C14.1654 3 9.2785 7.9294 9.2785 13.9637C9.321 19.9129 13.9954 24.7148 19.8597 24.9273Z" stroke="#F85C70" stroke-width="6" stroke-linecap="round" stroke-linejoin="round"/>
<path d="M24.2367 55.8637C18.415 56.8411 11.9983 55.8212 7.49382 52.8041C1.50206 48.8096 1.50206 42.2654 7.49382 38.2709C12.0408 35.2537 18.5424 34.2338 24.3642 35.2537" stroke="#F85C70" stroke-width="6" stroke-linecap="round" stroke-linejoin="round"/>
<path d="M45.4838 56.6707C45.2289 56.6282 44.9314 56.6282 44.6765 56.6707C38.8122 56.4582 34.1378 51.6563 34.1378 45.7071C34.1378 39.6303 39.0246 34.7434 45.1014 34.7434C51.1781 34.7434 56.065 39.6728 56.065 45.7071C56.0226 51.6563 51.3481 56.5007 45.4838 56.6707Z" stroke="#F85C70" stroke-width="6" stroke-linecap="round" stroke-linejoin="round"/>
<path d="M33.118 70.0568C27.1263 74.0513 27.1263 80.5955 33.118 84.59C39.9172 89.1369 51.0508 89.1369 57.85 84.59C63.8417 80.5955 63.8417 74.0513 57.85 70.0568C51.0933 65.5524 39.9172 65.5524 33.118 70.0568Z" stroke="#F85C70" stroke-width="6" stroke-linecap="round" stroke-linejoin="round"/>
</svg>
