<svg width="80" height="92" viewBox="0 0 80 92" fill="none" xmlns="http://www.w3.org/2000/svg">
<path d="M33.09 4.47787L11.8825 12.4679C6.995 14.2954 3 20.0754 3 25.2604V56.8379C3 61.8529 6.315 68.4404 10.3525 71.4579L28.6275 85.1004C34.62 89.6054 44.48 89.6054 50.4725 85.1004L68.7475 71.4579C72.785 68.4404 76.1 61.8529 76.1 56.8379V25.2604C76.1 20.0329 72.105 14.2529 67.2175 12.4254L46.01 4.47787C42.3975 3.16037 36.6175 3.16037 33.09 4.47787Z" stroke="#F85C70" stroke-width="6" stroke-linecap="round" stroke-linejoin="round"/>
<path d="M39.5074 48.1252C44.2019 48.1252 48.0074 44.3197 48.0074 39.6252C48.0074 34.9308 44.2019 31.1252 39.5074 31.1252C34.813 31.1252 31.0074 34.9308 31.0074 39.6252C31.0074 44.3197 34.813 48.1252 39.5074 48.1252Z" stroke="#F85C70" stroke-width="6" stroke-miterlimit="10" stroke-linecap="round" stroke-linejoin="round"/>
<path d="M39.5074 48.125V60.875" stroke="#F85C70" stroke-width="6" stroke-miterlimit="10" stroke-linecap="round" stroke-linejoin="round"/>
</svg>
