<svg width="16" height="16" viewBox="0 0 16 16" fill="none" xmlns="http://www.w3.org/2000/svg">
<path d="M14.1311 7.01245V9.8187C14.1311 12.6249 13.0123 13.75 10.1998 13.75H6.83108C6.46858 13.75 6.1373 13.7312 5.83105 13.6875" stroke="#999999" stroke-width="1.5" stroke-linecap="round" stroke-linejoin="round"/>
<path d="M2.8999 9.69998V7.01245" stroke="#999999" stroke-width="1.5" stroke-linecap="round" stroke-linejoin="round"/>
<path d="M8.51919 7.5C9.66293 7.5 10.5067 6.56878 10.3942 5.42503L9.97541 1.25H7.05667L6.63793 5.42503C6.52543 6.56878 7.37544 7.5 8.51919 7.5Z" stroke="#999999" stroke-width="1.5" stroke-linecap="round" stroke-linejoin="round"/>
<path d="M12.4565 7.5C13.719 7.5 14.6439 6.47498 14.5189 5.21873L14.3439 3.49998C14.1189 1.87498 13.4939 1.25 11.8564 1.25H9.9502L10.3877 5.63126C10.5002 6.66251 11.4252 7.5 12.4565 7.5Z" stroke="#999999" stroke-width="1.5" stroke-linecap="round" stroke-linejoin="round"/>
<path d="M4.54387 7.5C5.57512 7.5 6.50636 6.66251 6.60636 5.63126L6.74388 4.25003L7.04387 1.25H5.13762C3.50012 1.25 2.87514 1.87498 2.65014 3.49998L2.47512 5.21873C2.35012 6.47498 3.28137 7.5 4.54387 7.5Z" stroke="#999999" stroke-width="1.5" stroke-linecap="round" stroke-linejoin="round"/>
<path d="M6.625 11.875C6.625 12.3438 6.49374 12.7875 6.26249 13.1625C6.14374 13.3625 5.99999 13.5438 5.83124 13.6875C5.81249 13.7125 5.79375 13.7313 5.76875 13.75C5.33125 14.1437 4.75625 14.375 4.125 14.375C3.3625 14.375 2.68123 14.0312 2.23123 13.4937C2.21873 13.475 2.20002 13.4625 2.18752 13.4438C2.11252 13.3563 2.04376 13.2625 1.98751 13.1625C1.75626 12.7875 1.625 12.3438 1.625 11.875C1.625 11.0875 1.9875 10.3813 2.5625 9.925C2.66875 9.8375 2.78124 9.76251 2.89999 9.70001C3.26249 9.49376 3.68125 9.375 4.125 9.375C4.75 9.375 5.31248 9.59998 5.74998 9.98123C5.82498 10.0375 5.89375 10.1063 5.95625 10.175C6.36875 10.625 6.625 11.2188 6.625 11.875Z" stroke="#999999" stroke-width="1.5" stroke-miterlimit="10" stroke-linecap="round" stroke-linejoin="round"/>
<path d="M5.05682 11.8625H3.19434" stroke="#999999" stroke-width="1.5" stroke-miterlimit="10" stroke-linecap="round" stroke-linejoin="round"/>
<path d="M4.12549 10.9501V12.8188" stroke="#999999" stroke-width="1.5" stroke-miterlimit="10" stroke-linecap="round" stroke-linejoin="round"/>
</svg>
